<svg xmlns="http://www.w3.org/2000/svg" xmlns:xlink="http://www.w3.org/1999/xlink" viewBox="0 0 1648.649 1648.65">
  <defs>
    <style>
      .cls-1 {
        fill: #ff5b5b;
      }

      .cls-2 {
        filter: url(#Exclusion_7);
      }
    </style>
    <filter id="Exclusion_7" x="0" y="0" width="1648.649" height="1648.65" filterUnits="userSpaceOnUse">
      <feOffset dy="3" input="SourceAlpha"/>
      <feGaussianBlur stdDeviation="3" result="blur"/>
      <feFlood flood-opacity="0.161"/>
      <feComposite operator="in" in2="blur"/>
      <feComposite in="SourceGraphic"/>
    </filter>
  </defs>
  <g class="cls-2" transform="matrix(1, 0, 0, 1, 0, 0)">
    <path id="Exclusion_7-2" data-name="Exclusion 7" class="cls-1" d="M1221.322,212.65a821.311,821.311,0,0,1-164.315-16.565,811.008,811.008,0,0,1-153.044-47.508A815.152,815.152,0,0,1,765.469,73.4,820.909,820.909,0,0,1,644.8-26.153a821.108,821.108,0,0,1-99.558-120.663,815.392,815.392,0,0,1-75.172-138.5,811.159,811.159,0,0,1-47.508-153.043A821.339,821.339,0,0,1,406-602.671,821.372,821.372,0,0,1,422.564-766.99a811.387,811.387,0,0,1,47.508-153.046,815.407,815.407,0,0,1,75.172-138.494A821.177,821.177,0,0,1,644.8-1179.193a820.771,820.771,0,0,1,120.667-99.56,814.957,814.957,0,0,1,138.493-75.173,811.3,811.3,0,0,1,153.044-47.512A821.523,821.523,0,0,1,1221.322-1418a821.547,821.547,0,0,1,164.317,16.563,811.3,811.3,0,0,1,153.045,47.512,815.039,815.039,0,0,1,138.5,75.173,821,821,0,0,1,120.667,99.56A821.135,821.135,0,0,1,1897.4-1058.53a815.616,815.616,0,0,1,75.173,138.494,811.4,811.4,0,0,1,47.508,153.046,821.468,821.468,0,0,1,16.563,164.319,821.434,821.434,0,0,1-16.562,164.315,811.158,811.158,0,0,1-47.508,153.043,815.438,815.438,0,0,1-75.173,138.5,821.02,821.02,0,0,1-99.558,120.663A821.138,821.138,0,0,1,1677.18,73.4a815.179,815.179,0,0,1-138.5,75.173,811,811,0,0,1-153.045,47.508A821.335,821.335,0,0,1,1221.322,212.65Zm186.332-936.6L1251.067,85.584h268.485l150.024-775.656V-961.04H1286.867v-231.3H1093.089v231.3h-67.821v-231.3H831.491v231.3H695.844v237.086H831.491v312.247h193.778V-723.954h67.821v312.247h193.778V-723.954h.013v.006Z" transform="translate(-397 1424)"/>
  </g>
</svg>
